<svg width="160" height="34" viewBox="0 0 160 34" fill="none" xmlns="http://www.w3.org/2000/svg">
<g clip-path="url(#clip0_606_3459)">
<path d="M67.9531 9.01687L70.2532 7.66406V26.4195H67.9531V9.01687Z" fill="#656565"/>
<path d="M49.7534 26.4195H47.4766V7.66406H55.89C64.4106 7.66406 64.4106 19.9902 55.89 20.0184H49.7487V26.4195H49.7534ZM55.89 9.83704H49.7487V17.8502H55.89C61.3422 17.8502 61.3422 9.83704 55.89 9.83704Z" fill="#656565"/>
<path d="M119.909 17.0689C119.881 21.971 116.864 26.7648 110.513 26.7648C104.162 26.7648 101.094 21.9946 101.094 17.0689C101.094 11.6294 104.693 7.31641 110.541 7.31641C116.813 7.34469 119.937 12.1149 119.909 17.0689ZM110.541 9.4611C105.829 9.4611 103.394 12.9727 103.394 17.0689C103.394 20.8728 105.671 24.5682 110.541 24.5682C115.411 24.5682 117.609 20.7643 117.609 17.0689C117.632 13.265 115.383 9.51766 110.541 9.4611Z" fill="#656565"/>
<path d="M127.225 7.66406L138.576 22.0217V8.99802L140.853 7.66878V26.4242H139.266L127.886 12.1184V26.4242H125.609V7.66406H127.225Z" fill="#656565"/>
<path d="M146.555 7.66406H159.997L158.777 9.80876H148.831V15.6772H159.997L158.763 17.8455H148.831V24.1947H159.997V26.4195H146.555V7.66406V7.66406Z" fill="#656565"/>
<path d="M28.3594 7.66406H41.8013L40.5815 9.80876H30.6362V15.6772H41.8013L40.5675 17.8455H30.6362V24.1947H41.8013V26.4195H28.3594V7.66406Z" fill="#656565"/>
<path d="M90.7769 11.684C89.3475 10.2653 87.4711 9.59592 85.5947 9.59592C80.6221 9.59592 78.2149 13.2395 78.2428 17.1188C78.2941 20.9227 80.5988 24.4815 85.5947 24.4815C87.4711 24.4815 89.4546 23.732 90.8607 22.3132L92.0154 24.3495C90.2042 25.9333 87.9321 26.7063 85.5947 26.7063C79.0623 26.7063 75.966 22.1294 75.9381 17.1471C75.8869 12.1931 79.0856 7.37109 85.5947 7.37109C87.8529 7.37109 90.0831 8.15827 91.8897 9.73733L90.7769 11.684Z" fill="#656565"/>
<path d="M5.63281 14.7304L17.0168 7.62227V0.5L5.63281 7.60813V14.7304Z" fill="#656565"/>
<path d="M5.625 33.4999L17.009 26.3918V19.2695L5.625 26.3777V33.4999Z" fill="#656565"/>
<path d="M0 27.6249L11.384 20.5168V13.3945L0 20.5027V27.6249Z" fill="#656565"/>
</g>
<defs>
<clipPath id="clip0_606_3459">
<rect width="160" height="33" fill="white" transform="translate(0 0.5)"/>
</clipPath>
</defs>
</svg>
